<svg t="1763995527096" class="icon" viewBox="0 0 1024 1024" version="1.1" xmlns="http://www.w3.org/2000/svg" p-id="40224" width="16" height="16"><path d="M136.118857 172.251429Q91.428571 216.576 91.428571 279.259429v465.481142q0 62.683429 44.690286 107.008 44.617143 44.251429 107.702857 44.251429h536.356572q63.085714 0 107.702857-44.251429 44.690286-44.324571 44.690286-107.008V279.259429q0-62.683429-44.690286-107.008-44.617143-44.251429-107.702857-44.251429H243.821714q-63.085714 0-107.702857 44.251429zM128 744.740571V279.259429q0-47.433143 33.865143-81.042286 33.938286-33.645714 81.92-33.645714h536.393143q48.018286 0 81.92 33.645714 33.901714 33.609143 33.901714 81.042286v465.481142q0 47.433143-33.865143 81.042286-33.938286 33.645714-81.92 33.645714H243.785143q-48.018286 0-81.92-33.645714-33.901714-33.609143-33.901714-81.042286z" fill="#d81e06" p-id="40225"></path><path d="M231.862857 697.234286V330.752h60.525714v144.237714h119.003429V330.752h60.745143v366.482286H411.428571v-160.219429H292.388571v160.219429H231.899429z m303.542857 0V330.752h60.489143v162.742857l122.733714-162.742857h81.773715l-113.261715 142.811429 119.222858 223.670857h-78.482286l-82.724572-172.214857-49.261714 61.476571v110.738286H535.405714z" fill="#d81e06" p-id="40226"></path></svg>