<svg t="1763994504640" class="icon" viewBox="0 0 1489 1024" version="1.1" xmlns="http://www.w3.org/2000/svg" p-id="12748" width="16" height="16"><path d="M56.133818 50.176v923.648h1377.186909V50.269091H56.133818zM0 0h1489.454545v1024H0V0z m157.137455 111.243636c55.109818 43.752727 101.282909 86.481455 138.612363 130.141091l-41.332363 46.359273c-34.071273-40.96-80.244364-84.619636-138.705455-130.978909l41.425455-45.521455z m-21.876364 218.391273c55.109818 43.659636 101.282909 87.319273 138.612364 130.978909l-41.332364 46.359273C198.469818 465.082182 152.296727 421.515636 93.090909 375.156364l42.170182-45.428364z m87.505454 241.105455l51.10691 21.783272a3338.24 3338.24 0 0 1-115.153455 329.262546l-53.434182-26.344727A2832.197818 2832.197818 0 0 0 222.766545 570.647273zM577.722182 93.090909c13.032727 33.698909 24.389818 71.866182 35.746909 114.594909h192.884364v298.356364H416.488727C413.230545 670.813091 375.156364 812.683636 302.173091 930.909091l-43.752727-43.752727C324.049455 784.570182 357.282909 651.636364 358.120727 489.658182V207.778909h196.142546a732.625455 732.625455 0 0 0-38.167273-103.703273L577.815273 93.090909z m171.845818 177.431273H416.488727v172.776727h333.079273V270.522182z m342.016-80.058182h76.986182L1396.363636 839.959273h-72.145454l-61.626182-181.992728h-265.774545l-61.626182 181.992728H863.883636l227.700364-649.495273z m-73.728 404.759273h223.697455l-109.381819-324.701091h-3.258181l-111.057455 324.701091z" fill="#d81e06" p-id="12749"></path></svg>