<svg t="1763995269934" class="icon" viewBox="0 0 1489 1024" version="1.1" xmlns="http://www.w3.org/2000/svg" p-id="13866" width="16" height="16"><path d="M56.133818 50.176v923.648h1377.186909V50.269091H56.133818zM0 0h1489.454545v1024H0V0z m487.144727 240.64l49.617455 22.434909c-39.098182 86.853818-91.042909 153.227636-154.437818 198.935273l-43.008-41.984a411.089455 411.089455 0 0 0 147.828363-179.386182z m141.405091-5.585455c64.232727 70.097455 113.757091 131.723636 147.828364 184.040728l-47.104 37.329454c-34.909091-57.902545-82.850909-120.459636-144.570182-189.626182l43.752727-31.650909zM151.552 93.090909a1167.546182 1167.546182 0 0 1 151.179636 141.032727l-39.842909 45.800728c-36.584727-44.869818-86.946909-92.532364-151.086545-142.894546L151.552 93.090909zM132.189091 311.668364a1078.272 1078.272 0 0 1 142.987636 142.894545l-39.005091 44.869818C202.007273 454.562909 154.065455 406.807273 93.090909 356.445091l39.005091-44.776727z m116.177454 260.654545l47.941819 22.341818A3115.473455 3115.473455 0 0 1 163.002182 924.392727l-54.458182-27.089454a2802.688 2802.688 0 0 0 139.729455-325.073455z m230.772364 15.825455H326.283636v-60.695273h211.316364V422.818909h56.785455v104.634182h212.898909v60.695273H652.101818c35.746909 85.922909 96.721455 162.536727 182.830546 230.679272l-37.422546 53.248c-89.367273-84.992-151.924364-179.386182-187.671273-283.927272h-15.45309V930.909091h-56.785455V588.148364h-14.708364a633.018182 633.018182 0 0 1-214.481454 292.305454l-30.068364-56.971636c91.787636-61.626182 158.440727-140.101818 200.704-235.333818z m312.785455-471.691637v174.638546h-55.202909V178.082909H396.194909v116.736h-55.296V116.456727h450.932364z m299.008 57.902546h77.265454L1396.363636 841.262545h-72.331636L1262.312727 654.429091h-266.519272l-61.719273 186.833454h-71.493818l228.258909-666.903272z m-73.914182 415.650909h224.256l-109.661091-333.451637h-3.258182l-111.336727 333.451637z" fill="#d81e06" p-id="13867"></path></svg>